<svg xmlns="http://www.w3.org/2000/svg" width="1024" height="1024" viewBox="0 0 1024 1024">
  <g fill="none" stroke="#FFFFFF" stroke-linecap="round" stroke-linejoin="round">
    <g stroke-width="26">
    <line x1="512.0" y1="512.0" x2="512.0" y2="160.0"/>
    <line x1="512.0" y1="512.0" x2="816.84" y2="336.0"/>
    <line x1="512.0" y1="512.0" x2="816.84" y2="688.0"/>
    <line x1="512.0" y1="512.0" x2="512.0" y2="864.0"/>
    <line x1="512.0" y1="512.0" x2="207.16" y2="688.0"/>
    <line x1="512.0" y1="512.0" x2="207.16" y2="336.0"/>
    </g>
    <g stroke-width="22">
    <line x1="512.0" y1="160.0" x2="489.0" y2="132.0"/>
    <line x1="512.0" y1="160.0" x2="535.0" y2="132.0"/>
    <line x1="512.0" y1="364.2" x2="417.4" y2="290.3"/>
    <line x1="512.0" y1="364.2" x2="606.6" y2="290.3"/>
    <line x1="512.0" y1="293.8" x2="434.8" y2="233.4"/>
    <line x1="512.0" y1="293.8" x2="589.2" y2="233.4"/>
    <line x1="512.0" y1="230.4" x2="453.7" y2="184.8"/>
    <line x1="512.0" y1="230.4" x2="570.3" y2="184.8"/>
    <line x1="816.84" y1="336.0" x2="829.59" y2="302.08"/>
    <line x1="816.84" y1="336.0" x2="852.59" y2="341.92"/>
    <line x1="640.0" y1="438.1" x2="656.7" y2="319.22"/>
    <line x1="640.0" y1="438.1" x2="751.3" y2="483.08"/>
    <line x1="700.97" y1="402.9" x2="714.67" y2="305.84"/>
    <line x1="700.97" y1="402.9" x2="791.87" y2="439.56"/>
    <line x1="755.87" y1="371.2" x2="766.21" y2="297.91"/>
    <line x1="755.87" y1="371.2" x2="824.51" y2="398.89"/>
    <line x1="816.84" y1="688.0" x2="852.59" y2="682.08"/>
    <line x1="816.84" y1="688.0" x2="829.59" y2="721.92"/>
    <line x1="640.0" y1="585.9" x2="751.3" y2="540.92"/>
    <line x1="640.0" y1="585.9" x2="656.7" y2="704.78"/>
    <line x1="700.97" y1="621.1" x2="791.87" y2="584.44"/>
    <line x1="700.97" y1="621.1" x2="714.67" y2="718.16"/>
    <line x1="755.87" y1="652.8" x2="824.51" y2="625.11"/>
    <line x1="755.87" y1="652.8" x2="766.21" y2="726.09"/>
    <line x1="512.0" y1="864.0" x2="535.0" y2="892.0"/>
    <line x1="512.0" y1="864.0" x2="489.0" y2="892.0"/>
    <line x1="512.0" y1="659.8" x2="606.6" y2="733.7"/>
    <line x1="512.0" y1="659.8" x2="417.4" y2="733.7"/>
    <line x1="512.0" y1="730.2" x2="589.2" y2="790.6"/>
    <line x1="512.0" y1="730.2" x2="434.8" y2="790.6"/>
    <line x1="512.0" y1="793.6" x2="570.3" y2="839.2"/>
    <line x1="512.0" y1="793.6" x2="453.7" y2="839.2"/>
    <line x1="207.16" y1="688.0" x2="194.41" y2="721.92"/>
    <line x1="207.16" y1="688.0" x2="171.41" y2="682.08"/>
    <line x1="384.0" y1="585.9" x2="367.3" y2="704.78"/>
    <line x1="384.0" y1="585.9" x2="272.7" y2="540.92"/>
    <line x1="323.03" y1="621.1" x2="309.33" y2="718.16"/>
    <line x1="323.03" y1="621.1" x2="232.13" y2="584.44"/>
    <line x1="268.13" y1="652.8" x2="257.79" y2="726.09"/>
    <line x1="268.13" y1="652.8" x2="199.49" y2="625.11"/>
    <line x1="207.16" y1="336.0" x2="171.41" y2="341.92"/>
    <line x1="207.16" y1="336.0" x2="194.41" y2="302.08"/>
    <line x1="384.0" y1="438.1" x2="272.7" y2="483.08"/>
    <line x1="384.0" y1="438.1" x2="367.3" y2="319.22"/>
    <line x1="323.03" y1="402.9" x2="232.13" y2="439.56"/>
    <line x1="323.03" y1="402.9" x2="309.33" y2="305.84"/>
    <line x1="268.13" y1="371.2" x2="199.49" y2="398.89"/>
    <line x1="268.13" y1="371.2" x2="257.79" y2="297.91"/>
    </g>
  </g>
  <polygon points="512.0,466.0 472.16,489.0 472.16,535.0 512.0,558.0 551.84,535.0 551.84,489.0" fill="#FFFFFF"/>
</svg>
